# xmcd
#
# Track frame offsets:
#	150
#	29746
#	55825
#	89663
#	133380
#	220700
#
# Disc length: 3136 seconds
#
# Revision: 0
# Processed by: cddbd v1.5.2PL0 Copyright (c) Steve Scherf et al.
# Submitted via: audiograbber 1.83.01
#
DISCID=5b0c3e06
DTITLE=Grateful Dead - 77-06-08 Winterland Arena, San Francisco CA
DYEAR=1900
DGENRE=
TTITLE0=Bertha
TTITLE1=Good Lovin
TTITLE2=Ramble On Rose
TTITLE3=Estimated Prophet
TTITLE4=Eyes Of The World
TTITLE5=Drums
EXTD=
EXTT0=
EXTT1=
EXTT2=
EXTT3=
EXTT4=
EXTT5=
PLAYORDER=
